<svg width="149" height="20" viewBox="0 0 149 20" fill="none" xmlns="http://www.w3.org/2000/svg">
<path d="M25.6689 10.1768C25.6689 10.9385 26.1182 11.3633 27.1045 11.6025L28.0078 11.8223C28.5693 11.959 28.8428 12.2031 28.8428 12.5645C28.8428 13.0479 28.335 13.3848 27.627 13.3848C26.9531 13.3848 26.5332 13.1016 26.3916 12.6572H25.5273C25.6201 13.5312 26.4258 14.0928 27.5977 14.0928C28.7939 14.0928 29.707 13.4434 29.707 12.501C29.707 11.7441 29.2285 11.3145 28.2373 11.0752L27.4268 10.8799C26.8066 10.7285 26.5137 10.5039 26.5137 10.1426C26.5137 9.67383 27.002 9.35645 27.627 9.35645C28.2617 9.35645 28.6719 9.63477 28.7842 10.0547H29.6143C29.502 9.19043 28.7354 8.64355 27.6318 8.64355C26.5137 8.64355 25.6689 9.30273 25.6689 10.1768ZM37.5 8.73633H36.6553L35.6201 12.9453H35.542L34.3652 8.73633H33.5596L32.3828 12.9453H32.3047L31.2695 8.73633H30.4199L31.8945 14H32.7441L33.916 9.92773H33.9941L35.1709 14H36.0254L37.5 8.73633ZM39.0625 7.7207C39.3848 7.7207 39.6484 7.45703 39.6484 7.13477C39.6484 6.8125 39.3848 6.54883 39.0625 6.54883C38.7402 6.54883 38.4766 6.8125 38.4766 7.13477C38.4766 7.45703 38.7402 7.7207 39.0625 7.7207ZM38.6426 14H39.4824V8.73633H38.6426V14ZM43.6475 8.64355C42.9297 8.64355 42.2998 9.00977 41.9629 9.61523H41.8848V8.73633H41.084V15.7578H41.9238V13.209H42.002C42.29 13.7656 42.8955 14.0928 43.6475 14.0928C44.9854 14.0928 45.8594 13.0137 45.8594 11.3682C45.8594 9.71289 44.9902 8.64355 43.6475 8.64355ZM43.4473 13.3359C42.5 13.3359 41.8994 12.5742 41.8994 11.3682C41.8994 10.1572 42.5 9.40039 43.4521 9.40039C44.4141 9.40039 44.9902 10.1377 44.9902 11.3682C44.9902 12.5986 44.4141 13.3359 43.4473 13.3359ZM50.6641 12.6377C50.4443 13.1016 49.9854 13.3506 49.3066 13.3506C48.4131 13.3506 47.832 12.6914 47.7881 11.6514V11.6123H51.5723V11.29C51.5723 9.6543 50.708 8.64355 49.2871 8.64355C47.8418 8.64355 46.9141 9.71777 46.9141 11.373C46.9141 13.0381 47.8271 14.0928 49.2871 14.0928C50.4395 14.0928 51.2598 13.5361 51.5039 12.6377H50.6641ZM49.2773 9.38574C50.1123 9.38574 50.6689 10.001 50.6885 10.9336H47.7881C47.8516 10.001 48.4375 9.38574 49.2773 9.38574ZM57.876 14.0928C59.375 14.0928 60.3027 13.0576 60.3027 11.3682C60.3027 9.67383 59.375 8.64355 57.876 8.64355C56.377 8.64355 55.4492 9.67383 55.4492 11.3682C55.4492 13.0576 56.377 14.0928 57.876 14.0928ZM57.876 13.3359C56.8799 13.3359 56.3184 12.6133 56.3184 11.3682C56.3184 10.1182 56.8799 9.40039 57.876 9.40039C58.8721 9.40039 59.4336 10.1182 59.4336 11.3682C59.4336 12.6133 58.8721 13.3359 57.876 13.3359ZM61.6211 14H62.4609V10.8848C62.4609 9.96191 63.0029 9.40039 63.8428 9.40039C64.6826 9.40039 65.083 9.84961 65.083 10.7969V14H65.9229V10.5918C65.9229 9.3418 65.2637 8.64355 64.082 8.64355C63.2764 8.64355 62.7637 8.98535 62.5 9.56641H62.4219V8.73633H61.6211V14ZM71.748 14.0928C72.4512 14.0928 73.0273 13.7852 73.3691 13.2236H73.4473V14H74.248V10.3965C74.248 9.30273 73.5303 8.64355 72.2461 8.64355C71.123 8.64355 70.293 9.2002 70.1807 10.0449H71.0303C71.1475 9.62988 71.5869 9.39062 72.2168 9.39062C73.0029 9.39062 73.4082 9.74707 73.4082 10.3965V10.875L71.8896 10.9678C70.6641 11.041 69.9707 11.583 69.9707 12.5254C69.9707 13.4873 70.7275 14.0928 71.748 14.0928ZM71.9043 13.3555C71.2939 13.3555 70.8398 13.043 70.8398 12.5059C70.8398 11.9785 71.1914 11.7002 71.9922 11.6465L73.4082 11.5537V12.0371C73.4082 12.7891 72.7686 13.3555 71.9043 13.3555ZM75.8008 14H76.6406V10.8848C76.6406 9.96191 77.1826 9.40039 78.0225 9.40039C78.8623 9.40039 79.2627 9.84961 79.2627 10.7969V14H80.1025V10.5918C80.1025 9.3418 79.4434 8.64355 78.2617 8.64355C77.4561 8.64355 76.9434 8.98535 76.6797 9.56641H76.6016V8.73633H75.8008V14ZM84.9023 7.7207C85.2246 7.7207 85.4883 7.45703 85.4883 7.13477C85.4883 6.8125 85.2246 6.54883 84.9023 6.54883C84.5801 6.54883 84.3164 6.8125 84.3164 7.13477C84.3164 7.45703 84.5801 7.7207 84.9023 7.7207ZM84.4824 14H85.3223V8.73633H84.4824V14ZM87.2754 7.37402V8.73633H86.4258V9.43945H87.2754V12.6328C87.2754 13.6387 87.71 14.0391 88.7939 14.0391C88.96 14.0391 89.1211 14.0195 89.2871 13.9902V13.2822C89.1309 13.2969 89.0479 13.3018 88.8965 13.3018C88.3496 13.3018 88.1152 13.0381 88.1152 12.418V9.43945H89.2871V8.73633H88.1152V7.37402H87.2754ZM93.9648 12.6377C93.7451 13.1016 93.2861 13.3506 92.6074 13.3506C91.7139 13.3506 91.1328 12.6914 91.0889 11.6514V11.6123H94.873V11.29C94.873 9.6543 94.0088 8.64355 92.5879 8.64355C91.1426 8.64355 90.2148 9.71777 90.2148 11.373C90.2148 13.0381 91.1279 14.0928 92.5879 14.0928C93.7402 14.0928 94.5605 13.5361 94.8047 12.6377H93.9648ZM92.5781 9.38574C93.4131 9.38574 93.9697 10.001 93.9893 10.9336H91.0889C91.1523 10.001 91.7383 9.38574 92.5781 9.38574ZM96.1914 14H97.0312V10.7383C97.0312 9.99609 97.5635 9.40039 98.252 9.40039C98.916 9.40039 99.3506 9.80078 99.3506 10.4258V14H100.19V10.6162C100.19 9.94727 100.679 9.40039 101.411 9.40039C102.153 9.40039 102.52 9.78125 102.52 10.5576V14H103.359V10.3623C103.359 9.25879 102.759 8.64355 101.685 8.64355C100.957 8.64355 100.356 9.00977 100.073 9.56641H99.9951C99.751 9.01953 99.2529 8.64355 98.54 8.64355C97.8369 8.64355 97.3096 8.98047 97.0703 9.56641H96.9922V8.73633H96.1914V14ZM108.066 7.37402V8.73633H107.217V9.43945H108.066V12.6328C108.066 13.6387 108.501 14.0391 109.585 14.0391C109.751 14.0391 109.912 14.0195 110.078 13.9902V13.2822C109.922 13.2969 109.839 13.3018 109.688 13.3018C109.141 13.3018 108.906 13.0381 108.906 12.418V9.43945H110.078V8.73633H108.906V7.37402H108.066ZM113.433 14.0928C114.932 14.0928 115.859 13.0576 115.859 11.3682C115.859 9.67383 114.932 8.64355 113.433 8.64355C111.934 8.64355 111.006 9.67383 111.006 11.3682C111.006 13.0576 111.934 14.0928 113.433 14.0928ZM113.433 13.3359C112.437 13.3359 111.875 12.6133 111.875 11.3682C111.875 10.1182 112.437 9.40039 113.433 9.40039C114.429 9.40039 114.99 10.1182 114.99 11.3682C114.99 12.6133 114.429 13.3359 113.433 13.3359ZM121.948 14.0928C122.676 14.0928 123.301 13.7461 123.633 13.1602H123.711V14H124.512V6.64648H123.672V9.56641H123.599C123.301 8.99023 122.681 8.64355 121.948 8.64355C120.61 8.64355 119.736 9.71777 119.736 11.3682C119.736 13.0234 120.601 14.0928 121.948 14.0928ZM122.144 9.40039C123.096 9.40039 123.691 10.1621 123.691 11.3682C123.691 12.584 123.101 13.3359 122.144 13.3359C121.182 13.3359 120.605 12.5986 120.605 11.3682C120.605 10.1426 121.187 9.40039 122.144 9.40039ZM129.629 12.6377C129.409 13.1016 128.95 13.3506 128.271 13.3506C127.378 13.3506 126.797 12.6914 126.753 11.6514V11.6123H130.537V11.29C130.537 9.6543 129.673 8.64355 128.252 8.64355C126.807 8.64355 125.879 9.71777 125.879 11.373C125.879 13.0381 126.792 14.0928 128.252 14.0928C129.404 14.0928 130.225 13.5361 130.469 12.6377H129.629ZM128.242 9.38574C129.077 9.38574 129.634 10.001 129.653 10.9336H126.753C126.816 10.001 127.402 9.38574 128.242 9.38574ZM131.904 14H132.744V6.64648H131.904V14ZM137.861 12.6377C137.642 13.1016 137.183 13.3506 136.504 13.3506C135.61 13.3506 135.029 12.6914 134.985 11.6514V11.6123H138.77V11.29C138.77 9.6543 137.905 8.64355 136.484 8.64355C135.039 8.64355 134.111 9.71777 134.111 11.373C134.111 13.0381 135.024 14.0928 136.484 14.0928C137.637 14.0928 138.457 13.5361 138.701 12.6377H137.861ZM136.475 9.38574C137.31 9.38574 137.866 10.001 137.886 10.9336H134.985C135.049 10.001 135.635 9.38574 136.475 9.38574ZM140.439 7.37402V8.73633H139.59V9.43945H140.439V12.6328C140.439 13.6387 140.874 14.0391 141.958 14.0391C142.124 14.0391 142.285 14.0195 142.451 13.9902V13.2822C142.295 13.2969 142.212 13.3018 142.061 13.3018C141.514 13.3018 141.279 13.0381 141.279 12.418V9.43945H142.451V8.73633H141.279V7.37402H140.439ZM147.129 12.6377C146.909 13.1016 146.45 13.3506 145.771 13.3506C144.878 13.3506 144.297 12.6914 144.253 11.6514V11.6123H148.037V11.29C148.037 9.6543 147.173 8.64355 145.752 8.64355C144.307 8.64355 143.379 9.71777 143.379 11.373C143.379 13.0381 144.292 14.0928 145.752 14.0928C146.904 14.0928 147.725 13.5361 147.969 12.6377H147.129ZM145.742 9.38574C146.577 9.38574 147.134 10.001 147.153 10.9336H144.253C144.316 10.001 144.902 9.38574 145.742 9.38574Z" fill="black"/>
<path d="M10.7375 2.66506C10.7165 2.65456 8.63603 1.66656 6.98053 1.54056C5.24053 1.40506 3.49703 2.32856 3.47903 2.33856L3.24353 1.89706C3.31953 1.85656 5.13353 0.901057 7.01853 1.04156C8.76803 1.17556 10.8645 2.17206 10.953 2.21406L10.7375 2.66506Z" fill="black"/>
<path d="M8.97852 3.64851L8.75952 3.19901L10.4745 2.36301L9.36652 0.840509L9.77102 0.546509L11.2295 2.55051L8.97852 3.64851Z" fill="black"/>
<path d="M1.51146 4.95704L1.29596 4.50604C1.38446 4.46404 3.48096 3.46754 5.23096 3.33354C7.10996 3.19654 8.92946 4.14854 9.00546 4.18904L8.76996 4.63054C8.75246 4.62104 7.00346 3.69704 5.26896 3.83254C3.61346 3.95854 1.53246 4.94704 1.51146 4.95704Z" fill="black"/>
<path d="M3.27097 5.9405L1.01947 4.8425L2.47797 2.8385L2.88247 3.1325L1.77447 4.655L3.48947 5.491L3.27097 5.9405Z" fill="black"/>
<path d="M12.669 19.719C12.0325 19.719 11.387 19.65 10.803 19.52C9.80651 19.298 7.71001 17.6985 7.26651 17.239C6.86551 16.8235 5.79151 15.2285 5.63401 13.931C5.56501 13.366 5.99851 11.6825 6.52901 11.0835C6.63351 10.966 6.74301 10.887 6.85501 10.848C6.83248 10.7966 6.80964 10.7452 6.78651 10.694C6.44151 9.94305 5.93051 9.07554 5.47951 8.30954C4.71601 7.01254 4.43151 6.49454 4.47951 6.19954C4.56001 5.69954 4.97001 5.12254 5.51601 5.02154L5.61251 5.00204C5.75327 4.96811 5.89725 4.94934 6.04201 4.94604C6.51851 4.94604 6.95501 5.21804 7.41651 5.80154C7.81601 6.30704 8.46301 7.70254 9.00751 8.96504C8.98251 8.64704 8.99201 8.38154 9.05901 8.22654C9.32901 7.60004 10.082 7.35354 10.3115 7.33905L10.368 7.33754C10.5135 7.33754 11.258 7.37404 11.603 8.09804C11.658 8.21404 11.7105 8.33904 11.759 8.46554C11.821 8.25054 11.909 8.06304 12.0345 7.95604C12.4205 7.62804 12.949 7.45804 13.3085 7.55904C13.695 7.66754 14.0205 8.07654 14.138 8.60304C14.1885 8.48904 14.2495 8.39654 14.3215 8.34254C14.671 8.08054 15.279 8.05254 15.664 8.31954C16.134 8.64554 17.215 10.5985 17.405 12.3065C17.5605 13.7105 17.736 16.2195 17.1565 17.2535C16.5545 18.326 15.323 19.159 14.4335 19.4785C14.0005 19.633 13.374 19.719 12.669 19.719ZM7.03401 11.329C6.70201 11.362 6.05151 13.222 6.13001 13.8695C6.27101 15.0335 7.27051 16.5225 7.62651 16.8915C8.05001 17.3305 10.055 18.8405 10.911 19.031C11.4605 19.1535 12.0675 19.2185 12.6685 19.2185C13.308 19.2185 13.889 19.141 14.263 19.006C14.9355 18.7645 16.1435 18.033 16.719 17.0065C17.093 16.341 17.1615 14.647 16.907 12.3605C16.7265 10.7315 15.673 8.93355 15.3785 8.72855C15.142 8.56505 14.748 8.64505 14.6205 8.74104C14.55 8.82154 14.4455 9.29254 14.405 9.74104L14.2795 11.1245L13.915 9.78405C13.915 9.78405 13.753 9.18904 13.651 8.71754C13.564 8.31904 13.342 8.08604 13.1725 8.03904C12.986 7.98604 12.6115 8.11954 12.358 8.33554C12.22 8.45304 12.1175 9.13204 12.113 9.66704L12.094 11.7455L11.6195 9.72155C11.6175 9.71255 11.419 8.87004 11.1515 8.31154C10.9355 7.85854 10.4605 7.83554 10.368 7.83554C10.2225 7.84554 9.69001 8.02455 9.51801 8.42305C9.39801 8.70255 9.67001 10.161 9.99051 11.3515L9.51651 11.5075C9.50001 11.464 7.75751 7.03655 7.02501 6.11004C6.55401 5.51404 6.23901 5.44504 6.04301 5.44504C5.93301 5.44504 5.82701 5.46704 5.71551 5.49054L5.60801 5.51204C5.32701 5.56404 5.03151 5.92254 4.97301 6.27904C4.97751 6.47004 5.49501 7.34904 5.91101 8.05554C6.36751 8.83154 6.88551 9.71104 7.24101 10.4845C7.33151 10.681 7.41551 10.8855 7.49301 11.0945L7.49401 11.098C8.03651 11.8455 8.30651 14.304 8.33601 14.5865L7.83951 14.644C7.83751 14.6265 7.60851 12.8755 7.05351 11.3475C7.04744 11.3409 7.04092 11.3348 7.03401 11.329Z" fill="black"/>
</svg>
